<svg width="1793" height="1074" viewBox="0 0 1793 1074" fill="none" xmlns="http://www.w3.org/2000/svg">
<mask id="mask0_202_63" style="mask-type:alpha" maskUnits="userSpaceOnUse" x="12" y="0" width="1770" height="1074">
<ellipse cx="335" cy="545.5" rx="79" ry="320.5" fill="#D9D9D9"/>
<ellipse cx="91" cy="546" rx="79" ry="217" fill="#D9D9D9"/>
<ellipse cx="1703" cy="546" rx="79" ry="217" fill="#D9D9D9"/>
<ellipse cx="1459" cy="528.5" rx="79" ry="320.5" fill="#D9D9D9"/>
<ellipse cx="597.5" cy="545.5" rx="97.5" ry="456.5" fill="#D9D9D9"/>
<ellipse cx="1196.5" cy="528.5" rx="97.5" ry="456.5" fill="#D9D9D9"/>
<ellipse cx="889.5" cy="537" rx="164.5" ry="537" fill="#D9D9D9"/>
</mask>
<g mask="url(#mask0_202_63)">
<rect x="-28" y="-38" width="1959" height="1168" fill="url(#paint0_linear_202_63)"/>
</g>
<path d="M213.936 658.475L209.141 663.687V679.95L197.673 691H84.043L72.5757 679.95V403.692L84.043 392.017H197.673L209.141 403.692V419.955L213.936 424.542H230.199L241.666 436.009V647.424L230.199 658.475H213.936ZM202.886 436.009L197.673 431.422H116.568L108.437 423.291L103.642 427.878L111.773 436.009V647.424L103.642 655.556L108.437 660.351L116.568 652.22H197.673L202.886 647.424V436.009ZM361.134 679.533V663.27L355.922 658.475H339.659L328.609 647.007V468.535L339.659 457.067H355.922L367.389 468.535V647.007L372.185 651.803H453.707L461.838 659.726L466.425 655.139L458.293 647.007V468.535L469.969 457.067H486.232L497.282 468.535V679.533L486.232 691H372.185L361.134 679.533ZM628.635 691L617.584 679.533V663.27L612.372 658.475H596.109L584.642 647.007V598.428L596.109 586.752H612.372L617.584 582.165V565.902L628.635 554.435H709.74L717.871 562.566L722.875 557.771L714.952 549.64V501.06L709.74 496.265H628.635L623.839 501.06V517.114L612.372 528.79H596.109L584.642 517.114V501.06L596.109 489.384H612.372L617.584 484.797V468.535L628.635 457.067H709.74L721.207 468.535V484.797L726.419 489.384H742.265L753.732 501.06V679.533L742.265 691H628.635ZM628.635 651.803H709.74L717.871 659.726L722.875 655.139L714.952 647.007V598.428L722.875 590.296L717.871 585.501L709.74 593.632H628.635L623.839 598.428V647.007L628.635 651.803ZM905.518 436.009L913.649 427.878L909.062 423.291L900.514 431.422H884.668L873.201 419.955V403.692L884.668 392.017H933.248L944.506 403.692V647.007L936.375 655.139L941.379 659.726L949.51 651.803H965.773L976.823 663.27V679.533L965.773 691H916.985L905.518 679.533V436.009ZM1197.41 488.133L1192.41 492.929L1200.54 501.06V647.007L1192.41 655.139L1197.41 659.726L1205.54 651.803H1221.81L1232.86 663.27V679.533L1221.81 691H1140.7L1129.23 679.533V663.27L1140.7 651.803H1156.55L1165.1 659.726L1169.68 655.139L1161.55 647.007V501.06L1169.68 492.929L1165.1 488.133L1156.55 496.265H1140.7L1129.23 484.797V468.535L1140.7 457.067H1221.81L1232.86 468.535V484.797L1221.81 496.265H1205.54L1197.41 488.133ZM1159.88 391.6L1170.93 380.132H1191.16L1202.62 391.6V411.407L1191.16 422.874H1170.93L1159.88 411.407V391.6Z" fill="#FF6B6B"/>
<path d="M1343.42 664.533V648.27L1338.41 643.475H1322.15L1311.1 632.007V486.06L1319.02 477.929L1314.02 473.133L1305.89 481.265H1289.63L1278.58 469.797V453.535L1289.63 442.067H1305.89L1314.02 450.199L1319.02 445.403L1311.1 437.272V421.009L1322.15 409.542H1338.41L1349.88 421.009V437.272L1341.75 445.403L1346.55 450.199L1354.89 442.067H1403.67L1414.72 453.535V469.797L1403.67 481.265H1354.89L1346.55 473.133L1341.75 477.929L1349.88 486.06V632.007L1354.89 636.803H1403.67L1408.26 632.007V615.745L1419.94 604.277H1436.2L1447.25 615.745V632.007L1436.2 643.475H1419.94L1414.72 648.27V664.533L1403.67 676H1354.89L1343.42 664.533ZM1664.29 680.795L1672.42 672.664L1667.84 667.869L1659.71 676H1578.6L1567.13 664.533V648.27L1561.92 643.475H1545.66L1534.61 632.007V453.535L1545.66 442.067H1561.92L1573.39 453.535V632.007L1578.6 636.803H1659.71L1667.84 644.726L1672.42 640.139L1664.29 632.007V453.535L1675.97 442.067H1692.23L1703.28 453.535V696.85L1692.23 708.525H1675.97L1670.76 713.112V729.375L1659.71 740.842H1578.6L1567.13 729.375V713.112L1578.6 701.645H1659.71L1664.29 696.85V680.795Z" fill="#2A2E5B"/>
<path d="M184.936 643.475L180.141 648.687V664.95L168.673 676H55.043L43.5757 664.95V388.692L55.043 377.017H168.673L180.141 388.692V404.955L184.936 409.542H201.199L212.666 421.009V632.424L201.199 643.475H184.936ZM173.886 421.009L168.673 416.422H87.5684L79.437 408.291L74.6416 412.878L82.7729 421.009V632.424L74.6416 640.556L79.437 645.351L87.5684 637.22H168.673L173.886 632.424V421.009ZM332.134 664.533V648.27L326.922 643.475H310.659L299.609 632.007V453.535L310.659 442.067H326.922L338.389 453.535V632.007L343.185 636.803H424.707L432.838 644.726L437.425 640.139L429.293 632.007V453.535L440.969 442.067H457.232L468.282 453.535V664.533L457.232 676H343.185L332.134 664.533ZM599.635 676L588.584 664.533V648.27L583.372 643.475H567.109L555.642 632.007V583.428L567.109 571.752H583.372L588.584 567.165V550.902L599.635 539.435H680.74L688.871 547.566L693.875 542.771L685.952 534.64V486.06L680.74 481.265H599.635L594.839 486.06V502.114L583.372 513.79H567.109L555.642 502.114V486.06L567.109 474.384H583.372L588.584 469.797V453.535L599.635 442.067H680.74L692.207 453.535V469.797L697.419 474.384H713.265L724.732 486.06V664.533L713.265 676H599.635ZM599.635 636.803H680.74L688.871 644.726L693.875 640.139L685.952 632.007V583.428L693.875 575.296L688.871 570.501L680.74 578.632H599.635L594.839 583.428V632.007L599.635 636.803ZM876.518 421.009L884.649 412.878L880.062 408.291L871.514 416.422H855.668L844.201 404.955V388.692L855.668 377.017H904.248L915.506 388.692V632.007L907.375 640.139L912.379 644.726L920.51 636.803H936.773L947.823 648.27V664.533L936.773 676H887.985L876.518 664.533V421.009ZM1168.41 473.133L1163.41 477.929L1171.54 486.06V632.007L1163.41 640.139L1168.41 644.726L1176.54 636.803H1192.81L1203.86 648.27V664.533L1192.81 676H1111.7L1100.23 664.533V648.27L1111.7 636.803H1127.55L1136.1 644.726L1140.68 640.139L1132.55 632.007V486.06L1140.68 477.929L1136.1 473.133L1127.55 481.265H1111.7L1100.23 469.797V453.535L1111.7 442.067H1192.81L1203.86 453.535V469.797L1192.81 481.265H1176.54L1168.41 473.133ZM1130.88 376.6L1141.93 365.132H1162.16L1173.62 376.6V396.407L1162.16 407.874H1141.93L1130.88 396.407V376.6ZM1388.58 664.533V648.27L1383.58 643.475H1367.32L1356.27 632.007V486.06L1364.19 477.929L1359.19 473.133L1351.05 481.265H1334.79L1323.74 469.797V453.535L1334.79 442.067H1351.05L1359.19 450.199L1364.19 445.403L1356.27 437.272V421.009L1367.32 409.542H1383.58L1395.05 421.009V437.272L1386.92 445.403L1391.71 450.199L1400.05 442.067H1448.84L1459.89 453.535V469.797L1448.84 481.265H1400.05L1391.71 473.133L1386.92 477.929L1395.05 486.06V632.007L1400.05 636.803H1448.84L1453.43 632.007V615.745L1465.1 604.277H1481.36L1492.42 615.745V632.007L1481.36 643.475H1465.1L1459.89 648.27V664.533L1448.84 676H1400.05L1388.58 664.533ZM1709.46 680.795L1717.59 672.664L1713 667.869L1704.87 676H1623.77L1612.3 664.533V648.27L1607.09 643.475H1590.83L1579.77 632.007V453.535L1590.83 442.067H1607.09L1618.56 453.535V632.007L1623.77 636.803H1704.87L1713 644.726L1717.59 640.139L1709.46 632.007V453.535L1721.14 442.067H1737.4L1748.45 453.535V696.85L1737.4 708.525H1721.14L1715.92 713.112V729.375L1704.87 740.842H1623.77L1612.3 729.375V713.112L1623.77 701.645H1704.87L1709.46 696.85V680.795Z" fill="white"/>
<defs>
<linearGradient id="paint0_linear_202_63" x1="2832" y1="546" x2="-28" y2="546" gradientUnits="userSpaceOnUse">
<stop offset="0.0288462" stop-color="#FF6B6B" stop-opacity="0.67"/>
<stop offset="1" stop-color="#2A2E5B" stop-opacity="0.67"/>
</linearGradient>
</defs>
</svg>
